<?xml version="1.0" encoding="utf-8"?>
<!-- Generator: Adobe Illustrator 16.0.0, SVG Export Plug-In . SVG Version: 6.00 Build 0)  -->
<!DOCTYPE svg PUBLIC "-//W3C//DTD SVG 1.1//EN" "http://www.w3.org/Graphics/SVG/1.1/DTD/svg11.dtd">
<svg version="1.1" id="Layer_1" xmlns="http://www.w3.org/2000/svg" xmlns:xlink="http://www.w3.org/1999/xlink" x="0px" y="0px"
	 width="628px" height="289px" viewBox="0 0 628 289" enable-background="new 0 0 628 289" xml:space="preserve">
<polygon fill="#FFEE8A" points="538.095,289 425.508,278.018 533.788,245.281 421.223,256.475 521.036,203.243 412.816,236.182 
	500.327,164.5 400.613,217.918 472.459,130.542 385.082,202.387 438.5,102.672 366.818,190.184 399.757,81.964 346.525,181.777 
	357.719,69.211 324.982,177.492 314,64.906 303.018,177.492 270.281,69.211 281.475,181.777 228.243,81.964 261.182,190.184 
	189.5,102.672 242.918,202.387 155.542,130.542 227.386,217.918 127.672,164.5 215.183,236.182 106.964,203.243 206.777,256.475 
	94.211,245.281 202.492,278.018 89.906,289 "/>
<path fill="#EF8D43" d="M331.675,266.541L331.675,266.541c-1.393-2.501-4.472-7.191-7.217-11.283
	c-2.386-3.554-4.512-6.642-5.027-7.389v-12.15c0.515-0.269,0.865-0.807,0.867-1.429c-0.001-0.891-0.723-1.612-1.612-1.612h-7.33
	c-0.891,0-1.611,0.722-1.611,1.612c0,0.622,0.351,1.16,0.865,1.429v12.15c-0.516,0.747-2.648,3.838-5.038,7.396
	c-2.751,4.097-5.834,8.792-7.221,11.303c-0.238,0.445-0.535,1.142-0.544,1.928c0,0.961,0.366,1.842,0.969,2.484
	c0.6,0.641,1.451,1.051,2.389,1.049l27.712,0.001c0.001,0,0.002,0,0.003,0c0.937,0,1.786-0.409,2.385-1.05
	c0.603-0.643,0.969-1.523,0.969-2.484C332.226,267.693,331.916,266.987,331.675,266.541z M330.293,270.065
	c-0.374,0.396-0.868,0.629-1.416,0.629h-27.712c-0.548,0-1.042-0.233-1.416-0.629c-0.372-0.396-0.608-0.949-0.607-1.57
	c-0.008-0.403,0.212-0.996,0.377-1.283c1.332-2.414,4.419-7.124,7.161-11.204c1.371-2.041,2.658-3.929,3.603-5.307
	c0.943-1.378,1.542-2.241,1.544-2.244l0.118-0.172v-13.67l-0.612-0.051c-0.141-0.011-0.254-0.131-0.253-0.274
	c0-0.153,0.124-0.277,0.277-0.277h7.33c0.153,0,0.277,0.124,0.277,0.277c0.002,0.144-0.113,0.264-0.254,0.274l-0.613,0.051v13.67
	l0.119,0.171c0.002,0.002,0.599,0.866,1.54,2.243c2.821,4.122,8.739,12.868,10.754,16.49c0.171,0.296,0.399,0.896,0.392,1.306
	C330.9,269.116,330.664,269.67,330.293,270.065z"/>
<path fill="#EF8D43" d="M329.731,267.622c-0.976-1.755-2.963-4.858-5.04-8.001c-0.865-1.312-1.749-2.632-2.588-3.878h-14.173
	c-1.514,2.245-3.174,4.741-4.611,6.973c-1.275,1.979-2.378,3.76-3.021,4.927c-0.116,0.182-0.268,0.616-0.267,0.853
	c0,0.395,0.149,0.729,0.367,0.962c0.222,0.231,0.479,0.347,0.767,0.349h27.713c0.288-0.002,0.544-0.117,0.767-0.349
	c0.217-0.232,0.366-0.567,0.366-0.962C330.015,268.194,329.855,267.817,329.731,267.622z M315.939,256.995
	c0.796,0,1.441,0.646,1.441,1.442s-0.646,1.442-1.441,1.442c-0.797,0-1.444-0.646-1.444-1.442S315.143,256.995,315.939,256.995z
	 M311.405,261.258c-1.074,0-1.946-0.871-1.946-1.946c0-1.074,0.872-1.946,1.946-1.946c1.075,0,1.946,0.872,1.946,1.946
	C313.351,260.387,312.48,261.258,311.405,261.258z M313.521,263.301c0-0.717,0.581-1.298,1.297-1.298
	c0.717,0,1.298,0.581,1.298,1.298s-0.581,1.297-1.298,1.297C314.102,264.598,313.521,264.018,313.521,263.301z M316.088,268.087
	c-0.559,0-1.013-0.453-1.013-1.014c0-0.56,0.454-1.013,1.013-1.013c0.561,0,1.015,0.453,1.015,1.013
	C317.103,267.634,316.648,268.087,316.088,268.087z M318.864,263.274c-0.843,0-1.524-0.683-1.524-1.524
	c0-0.841,0.682-1.524,1.524-1.524c0.842,0,1.524,0.684,1.524,1.524C320.389,262.592,319.706,263.274,318.864,263.274z"/>
</svg>
